STARTFONT 2.1
FONT -FontForge-Tangerine-Book-R-Normal--16-160-72-72-P-60-ISO10646-1
SIZE 16 72 72
FONTBOUNDINGBOX 26 18 -5 -5
COMMENT "Generated by fontforge, http://fontforge.sourceforge.net"
COMMENT "Copyright (c) 2010 by Toshi Omagari. All rights reserved."
STARTPROPERTIES 39
FOUNDRY "FontForge"
FAMILY_NAME "Tangerine"
WEIGHT_NAME "Book"
SLANT "R"
SETWIDTH_NAME "Normal"
ADD_STYLE_NAME ""
PIXEL_SIZE 16
POINT_SIZE 160
RESOLUTION_X 72
RESOLUTION_Y 72
SPACING "P"
AVERAGE_WIDTH 60
CHARSET_REGISTRY "ISO10646"
CHARSET_ENCODING "1"
FONTNAME_REGISTRY ""
CHARSET_COLLECTIONS "ISO10646-1"
FONT_NAME "Tangerine-Regular"
FACE_NAME "Tangerine Regular"
COPYRIGHT "Copyright (c) 2010 by Toshi Omagari. All rights reserved."
FONT_VERSION "1.3"
FONT_ASCENT 12
FONT_DESCENT 4
UNDERLINE_POSITION -2
UNDERLINE_THICKNESS 1
X_HEIGHT 3
CAP_HEIGHT 9
RAW_ASCENT 750
RAW_DESCENT 250
NORM_SPACE 2
RELATIVE_WEIGHT 40
RELATIVE_SETWIDTH 50
SUPERSCRIPT_X 0
SUPERSCRIPT_Y 7
SUPERSCRIPT_SIZE 10
SUBSCRIPT_X 0
SUBSCRIPT_Y 2
SUBSCRIPT_SIZE 10
AVG_LOWERCASE_WIDTH 39
AVG_UPPERCASE_WIDTH 113
ENDPROPERTIES
CHARS 233
STARTCHAR space
ENCODING 32
SWIDTH 150 0
DWIDTH 2 0
BBX 1 1 0 0
BITMAP
00
ENDCHAR
STARTCHAR exclam
ENCODING 33
SWIDTH 189 0
DWIDTH 3 0
BBX 4 9 1 0
BITMAP
10
10
20
20
40
40
80
00
80
ENDCHAR
STARTCHAR quotedbl
ENCODING 34
SWIDTH 214 0
DWIDTH 3 0
BBX 5 2 0 4
BITMAP
D8
A0
ENDCHAR
STARTCHAR numbersign
ENCODING 35
SWIDTH 289 0
DWIDTH 5 0
BBX 5 5 0 0
BITMAP
28
78
60
F0
A0
ENDCHAR
STARTCHAR dollar
ENCODING 36
SWIDTH 269 0
DWIDTH 4 0
BBX 4 7 0 -1
BITMAP
10
70
60
30
50
E0
80
ENDCHAR
STARTCHAR percent
ENCODING 37
SWIDTH 388 0
DWIDTH 6 0
BBX 6 7 0 -1
BITMAP
04
68
B0
FC
34
58
80
ENDCHAR
STARTCHAR ampersand
ENCODING 38
SWIDTH 507 0
DWIDTH 8 0
BBX 8 8 0 0
BITMAP
18
28
30
20
63
9C
98
77
ENDCHAR
STARTCHAR quotesingle
ENCODING 39
SWIDTH 120 0
DWIDTH 2 0
BBX 2 2 1 4
BITMAP
C0
80
ENDCHAR
STARTCHAR parenleft
ENCODING 40
SWIDTH 250 0
DWIDTH 4 0
BBX 4 12 1 -2
BITMAP
10
20
40
40
40
80
80
80
80
80
80
80
ENDCHAR
STARTCHAR parenright
ENCODING 41
SWIDTH 276 0
DWIDTH 4 0
BBX 4 12 0 -2
BITMAP
10
10
10
10
10
10
10
20
20
20
40
80
ENDCHAR
STARTCHAR asterisk
ENCODING 42
SWIDTH 188 0
DWIDTH 3 0
BBX 3 3 0 4
BITMAP
40
E0
C0
ENDCHAR
STARTCHAR plus
ENCODING 43
SWIDTH 301 0
DWIDTH 5 0
BBX 5 5 0 0
BITMAP
20
20
F8
40
40
ENDCHAR
STARTCHAR comma
ENCODING 44
SWIDTH 112 0
DWIDTH 2 0
BBX 2 2 0 -1
BITMAP
40
80
ENDCHAR
STARTCHAR hyphen
ENCODING 45
SWIDTH 245 0
DWIDTH 4 0
BBX 3 1 1 2
BITMAP
E0
ENDCHAR
STARTCHAR period
ENCODING 46
SWIDTH 112 0
DWIDTH 2 0
BBX 1 1 0 0
BITMAP
80
ENDCHAR
STARTCHAR slash
ENCODING 47
SWIDTH 210 0
DWIDTH 3 0
BBX 6 11 0 -1
BITMAP
04
08
08
10
20
20
40
40
80
80
80
ENDCHAR
STARTCHAR zero
ENCODING 48
SWIDTH 349 0
DWIDTH 6 0
BBX 5 5 1 0
BITMAP
38
C8
88
90
E0
ENDCHAR
STARTCHAR one
ENCODING 49
SWIDTH 189 0
DWIDTH 3 0
BBX 3 5 1 0
BITMAP
60
40
80
80
80
ENDCHAR
STARTCHAR two
ENCODING 50
SWIDTH 277 0
DWIDTH 4 0
BBX 5 5 0 0
BITMAP
38
48
10
20
F8
ENDCHAR
STARTCHAR three
ENCODING 51
SWIDTH 253 0
DWIDTH 4 0
BBX 5 8 -1 -3
BITMAP
78
08
18
30
08
08
90
E0
ENDCHAR
STARTCHAR four
ENCODING 52
SWIDTH 363 0
DWIDTH 6 0
BBX 6 8 1 0
BITMAP
04
18
30
50
98
F8
20
20
ENDCHAR
STARTCHAR five
ENCODING 53
SWIDTH 250 0
DWIDTH 4 0
BBX 6 8 -1 -3
BITMAP
1C
20
10
28
08
08
90
E0
ENDCHAR
STARTCHAR six
ENCODING 54
SWIDTH 296 0
DWIDTH 5 0
BBX 6 8 1 0
BITMAP
0C
34
40
80
F0
90
90
E0
ENDCHAR
STARTCHAR seven
ENCODING 55
SWIDTH 326 0
DWIDTH 5 0
BBX 6 8 0 -3
BITMAP
3C
48
08
10
20
40
80
80
ENDCHAR
STARTCHAR eight
ENCODING 56
SWIDTH 305 0
DWIDTH 5 0
BBX 6 8 0 0
BITMAP
08
34
24
18
78
88
88
F0
ENDCHAR
STARTCHAR nine
ENCODING 57
SWIDTH 304 0
DWIDTH 5 0
BBX 5 8 0 -3
BITMAP
38
48
48
58
70
10
20
C0
ENDCHAR
STARTCHAR colon
ENCODING 58
SWIDTH 156 0
DWIDTH 3 0
BBX 2 4 0 0
BITMAP
40
00
00
80
ENDCHAR
STARTCHAR semicolon
ENCODING 59
SWIDTH 156 0
DWIDTH 3 0
BBX 2 5 0 -1
BITMAP
40
00
00
80
80
ENDCHAR
STARTCHAR less
ENCODING 60
SWIDTH 301 0
DWIDTH 5 0
BBX 4 4 0 0
BITMAP
30
C0
40
20
ENDCHAR
STARTCHAR equal
ENCODING 61
SWIDTH 301 0
DWIDTH 5 0
BBX 4 4 1 0
BITMAP
F0
00
00
E0
ENDCHAR
STARTCHAR greater
ENCODING 62
SWIDTH 301 0
DWIDTH 5 0
BBX 4 3 0 1
BITMAP
60
10
E0
ENDCHAR
STARTCHAR question
ENCODING 63
SWIDTH 285 0
DWIDTH 5 0
BBX 5 9 1 0
BITMAP
30
C8
08
08
10
60
40
00
80
ENDCHAR
STARTCHAR at
ENCODING 64
SWIDTH 492 0
DWIDTH 8 0
BBX 6 8 1 -2
BITMAP
38
44
BC
D4
D4
F8
84
78
ENDCHAR
STARTCHAR A
ENCODING 65
SWIDTH 996 0
DWIDTH 16 0
BBX 15 10 1 0
BITMAP
00FC
030A
0214
0024
0048
01F8
8088
8108
820A
FC0C
ENDCHAR
STARTCHAR B
ENCODING 66
SWIDTH 638 0
DWIDTH 10 0
BBX 10 11 1 0
BITMAP
0100
0F80
3840
4840
1080
1300
1080
2080
2080
C080
7F00
ENDCHAR
STARTCHAR C
ENCODING 67
SWIDTH 557 0
DWIDTH 9 0
BBX 9 10 1 0
BITMAP
0F80
3080
4000
8000
8000
8000
8000
8100
4100
3E00
ENDCHAR
STARTCHAR D
ENCODING 68
SWIDTH 799 0
DWIDTH 13 0
BBX 12 10 1 0
BITMAP
1FC0
6140
4220
0220
0210
0410
0410
0810
6820
F7C0
ENDCHAR
STARTCHAR E
ENCODING 69
SWIDTH 494 0
DWIDTH 8 0
BBX 7 10 1 0
BITMAP
1E
22
20
18
60
80
80
82
82
7C
ENDCHAR
STARTCHAR F
ENCODING 70
SWIDTH 626 0
DWIDTH 10 0
BBX 12 10 1 0
BITMAP
07F0
1880
2080
0080
0100
0FC0
0100
C200
8400
7800
ENDCHAR
STARTCHAR G
ENCODING 71
SWIDTH 571 0
DWIDTH 9 0
BBX 12 13 -1 -3
BITMAP
00F0
0110
0620
0400
0800
0800
0800
0840
0480
C380
8100
8200
7C00
ENDCHAR
STARTCHAR H
ENCODING 72
SWIDTH 865 0
DWIDTH 14 0
BBX 17 11 1 0
BITMAP
000080
0F8380
110400
110800
021000
021000
3F9000
447000
842000
882000
F03800
ENDCHAR
STARTCHAR I
ENCODING 73
SWIDTH 554 0
DWIDTH 9 0
BBX 11 10 1 0
BITMAP
00E0
0340
0480
0480
0880
0900
4500
8200
8400
7800
ENDCHAR
STARTCHAR J
ENCODING 74
SWIDTH 634 0
DWIDTH 10 0
BBX 13 13 0 -3
BITMAP
0038
00D0
0120
0120
0220
0220
0140
38E0
4080
8100
8300
8600
7800
ENDCHAR
STARTCHAR K
ENCODING 75
SWIDTH 936 0
DWIDTH 15 0
BBX 15 10 1 0
BITMAP
07C6
189A
2160
2180
2180
0180
8240
8240
8420
F81C
ENDCHAR
STARTCHAR L
ENCODING 76
SWIDTH 657 0
DWIDTH 11 0
BBX 11 10 1 0
BITMAP
00E0
0120
0220
0200
0400
0400
0800
4800
B0C0
EF80
ENDCHAR
STARTCHAR M
ENCODING 77
SWIDTH 1219 0
DWIDTH 20 0
BBX 20 10 1 0
BITMAP
01F810
060420
0408E0
000940
003A40
C05480
805880
809880
8310A0
7C10C0
ENDCHAR
STARTCHAR N
ENCODING 78
SWIDTH 990 0
DWIDTH 16 0
BBX 20 10 1 0
BITMAP
07C030
0840D0
006100
009100
009200
808A00
810C00
820400
820400
7C0400
ENDCHAR
STARTCHAR O
ENCODING 79
SWIDTH 606 0
DWIDTH 10 0
BBX 10 10 1 0
BITMAP
0F00
3080
4040
4040
8040
8040
8080
8080
4300
3C00
ENDCHAR
STARTCHAR P
ENCODING 80
SWIDTH 783 0
DWIDTH 13 0
BBX 13 11 1 0
BITMAP
0020
01E0
0698
0888
0888
0108
0310
42E0
8200
8400
7800
ENDCHAR
STARTCHAR Q
ENCODING 81
SWIDTH 563 0
DWIDTH 9 0
BBX 11 14 1 -3
BITMAP
0C00
3200
4180
8080
8080
8080
8100
6100
0200
0C00
F000
1000
0C20
03C0
ENDCHAR
STARTCHAR R
ENCODING 82
SWIDTH 854 0
DWIDTH 14 0
BBX 13 11 1 0
BITMAP
0040
01A0
0F10
1110
0110
0120
02C0
4280
8440
8840
F038
ENDCHAR
STARTCHAR S
ENCODING 83
SWIDTH 480 0
DWIDTH 8 0
BBX 8 10 1 0
BITMAP
1F
11
10
18
0C
06
42
82
82
7C
ENDCHAR
STARTCHAR T
ENCODING 84
SWIDTH 577 0
DWIDTH 9 0
BBX 13 10 1 0
BITMAP
07E0
1838
2040
2080
2080
0100
0100
8200
8400
7800
ENDCHAR
STARTCHAR U
ENCODING 85
SWIDTH 752 0
DWIDTH 12 0
BBX 13 10 1 0
BITMAP
3E08
C410
8820
9020
9040
20C0
2140
2140
2250
3C60
ENDCHAR
STARTCHAR V
ENCODING 86
SWIDTH 661 0
DWIDTH 11 0
BBX 11 10 1 0
BITMAP
70C0
8920
8420
8420
0440
0480
0500
0500
0600
0800
ENDCHAR
STARTCHAR W
ENCODING 87
SWIDTH 822 0
DWIDTH 13 0
BBX 14 10 1 0
BITMAP
7804
884C
8484
8584
0588
0690
04A0
04A0
08C0
0880
ENDCHAR
STARTCHAR X
ENCODING 88
SWIDTH 813 0
DWIDTH 13 0
BBX 13 10 1 0
BITMAP
0418
1A68
0280
0300
0200
0300
0500
8880
8890
F070
ENDCHAR
STARTCHAR Y
ENCODING 89
SWIDTH 662 0
DWIDTH 11 0
BBX 14 12 0 -2
BITMAP
0704
0108
0208
0210
0430
1420
64C0
8740
8080
8100
4200
7C00
ENDCHAR
STARTCHAR Z
ENCODING 90
SWIDTH 625 0
DWIDTH 10 0
BBX 10 10 1 0
BITMAP
07C0
1880
2100
0200
0C00
1000
2000
4080
6100
9E00
ENDCHAR
STARTCHAR bracketleft
ENCODING 91
SWIDTH 318 0
DWIDTH 5 0
BBX 6 12 1 -2
BITMAP
1C
20
20
20
20
40
40
40
40
40
80
E0
ENDCHAR
STARTCHAR backslash
ENCODING 92
SWIDTH 212 0
DWIDTH 3 0
BBX 3 11 0 -1
BITMAP
80
80
80
80
40
40
40
40
40
20
20
ENDCHAR
STARTCHAR bracketright
ENCODING 93
SWIDTH 339 0
DWIDTH 5 0
BBX 6 12 0 -2
BITMAP
1C
08
08
08
08
08
10
10
10
10
20
E0
ENDCHAR
STARTCHAR asciicircum
ENCODING 94
SWIDTH 272 0
DWIDTH 4 0
BBX 4 3 0 3
BITMAP
20
50
90
ENDCHAR
STARTCHAR underscore
ENCODING 95
SWIDTH 356 0
DWIDTH 6 0
BBX 5 1 0 -1
BITMAP
F8
ENDCHAR
STARTCHAR grave
ENCODING 96
SWIDTH 155 0
DWIDTH 2 0
BBX 2 1 0 5
BITMAP
C0
ENDCHAR
STARTCHAR a
ENCODING 97
SWIDTH 294 0
DWIDTH 5 0
BBX 5 4 0 0
BITMAP
38
D0
90
F8
ENDCHAR
STARTCHAR b
ENCODING 98
SWIDTH 247 0
DWIDTH 4 0
BBX 8 12 0 0
BITMAP
07
08
10
20
20
40
40
80
E0
A0
A0
C0
ENDCHAR
STARTCHAR c
ENCODING 99
SWIDTH 203 0
DWIDTH 3 0
BBX 3 4 0 0
BITMAP
60
80
80
E0
ENDCHAR
STARTCHAR d
ENCODING 100
SWIDTH 285 0
DWIDTH 5 0
BBX 11 12 0 0
BITMAP
0060
0180
0200
0200
0400
0400
0800
0800
7000
9000
9000
F800
ENDCHAR
STARTCHAR e
ENCODING 101
SWIDTH 206 0
DWIDTH 3 0
BBX 3 4 0 0
BITMAP
E0
C0
80
E0
ENDCHAR
STARTCHAR f
ENCODING 102
SWIDTH 156 0
DWIDTH 3 0
BBX 13 16 -5 -4
BITMAP
0018
0068
0080
0080
0100
0100
0100
0200
0780
0200
0200
0400
0400
0800
1000
E000
ENDCHAR
STARTCHAR g
ENCODING 103
SWIDTH 210 0
DWIDTH 3 0
BBX 5 8 -1 -4
BITMAP
38
30
30
20
20
D0
90
60
ENDCHAR
STARTCHAR h
ENCODING 104
SWIDTH 292 0
DWIDTH 5 0
BBX 9 12 0 0
BITMAP
0180
0600
0800
1000
1000
2000
2000
4000
5800
7000
D000
9800
ENDCHAR
STARTCHAR i
ENCODING 105
SWIDTH 149 0
DWIDTH 2 0
BBX 4 7 0 0
BITMAP
10
20
00
40
80
80
C0
ENDCHAR
STARTCHAR j
ENCODING 106
SWIDTH 136 0
DWIDTH 3 0
BBX 9 11 -5 -4
BITMAP
0080
0100
0000
0200
0C00
0400
0400
0800
0800
9000
E000
ENDCHAR
STARTCHAR k
ENCODING 107
SWIDTH 259 0
DWIDTH 4 0
BBX 9 12 0 0
BITMAP
0380
0C00
1000
1000
2000
2000
4000
4000
F000
A000
C000
B000
ENDCHAR
STARTCHAR l
ENCODING 108
SWIDTH 134 0
DWIDTH 2 0
BBX 8 12 0 0
BITMAP
03
0C
10
10
20
20
40
40
80
80
80
C0
ENDCHAR
STARTCHAR m
ENCODING 109
SWIDTH 413 0
DWIDTH 7 0
BBX 7 4 0 0
BITMAP
FC
54
A4
A6
ENDCHAR
STARTCHAR n
ENCODING 110
SWIDTH 291 0
DWIDTH 5 0
BBX 5 4 0 0
BITMAP
78
D0
50
98
ENDCHAR
STARTCHAR o
ENCODING 111
SWIDTH 225 0
DWIDTH 4 0
BBX 3 4 0 0
BITMAP
E0
A0
A0
C0
ENDCHAR
STARTCHAR p
ENCODING 112
SWIDTH 261 0
DWIDTH 4 0
BBX 5 9 -1 -4
BITMAP
20
38
48
58
70
80
80
80
C0
ENDCHAR
STARTCHAR q
ENCODING 113
SWIDTH 269 0
DWIDTH 4 0
BBX 5 8 0 -4
BITMAP
78
90
90
E0
20
40
40
60
ENDCHAR
STARTCHAR r
ENCODING 114
SWIDTH 195 0
DWIDTH 3 0
BBX 4 4 0 0
BITMAP
F0
40
40
80
ENDCHAR
STARTCHAR s
ENCODING 115
SWIDTH 188 0
DWIDTH 3 0
BBX 3 4 0 0
BITMAP
60
40
20
E0
ENDCHAR
STARTCHAR t
ENCODING 116
SWIDTH 171 0
DWIDTH 3 0
BBX 3 6 0 0
BITMAP
20
40
E0
C0
80
E0
ENDCHAR
STARTCHAR u
ENCODING 117
SWIDTH 299 0
DWIDTH 5 0
BBX 5 4 0 0
BITMAP
48
90
90
F8
ENDCHAR
STARTCHAR v
ENCODING 118
SWIDTH 271 0
DWIDTH 4 0
BBX 5 4 0 0
BITMAP
D8
48
50
60
ENDCHAR
STARTCHAR w
ENCODING 119
SWIDTH 369 0
DWIDTH 6 0
BBX 6 4 0 0
BITMAP
DC
64
64
B8
ENDCHAR
STARTCHAR x
ENCODING 120
SWIDTH 263 0
DWIDTH 4 0
BBX 5 4 -1 0
BITMAP
68
38
20
D8
ENDCHAR
STARTCHAR y
ENCODING 121
SWIDTH 280 0
DWIDTH 4 0
BBX 8 8 -3 -4
BITMAP
09
12
12
1C
04
88
88
F0
ENDCHAR
STARTCHAR z
ENCODING 122
SWIDTH 238 0
DWIDTH 4 0
BBX 3 4 0 0
BITMAP
60
C0
80
E0
ENDCHAR
STARTCHAR braceleft
ENCODING 123
SWIDTH 291 0
DWIDTH 5 0
BBX 5 12 1 -2
BITMAP
18
20
20
20
60
C0
40
40
80
80
80
40
ENDCHAR
STARTCHAR bar
ENCODING 124
SWIDTH 162 0
DWIDTH 3 0
BBX 1 14 1 -4
BITMAP
80
80
80
80
80
80
80
80
80
80
80
80
80
80
ENDCHAR
STARTCHAR braceright
ENCODING 125
SWIDTH 285 0
DWIDTH 5 0
BBX 6 12 -1 -2
BITMAP
0C
04
04
08
08
08
0C
10
10
10
20
C0
ENDCHAR
STARTCHAR asciitilde
ENCODING 126
SWIDTH 383 0
DWIDTH 6 0
BBX 5 2 1 2
BITMAP
48
B0
ENDCHAR
STARTCHAR space.dup1
ENCODING 160
SWIDTH 150 0
DWIDTH 2 0
BBX 1 1 0 0
BITMAP
00
ENDCHAR
STARTCHAR exclamdown
ENCODING 161
SWIDTH 189 0
DWIDTH 3 0
BBX 4 9 -1 -5
BITMAP
10
00
20
20
40
40
80
80
80
ENDCHAR
STARTCHAR cent
ENCODING 162
SWIDTH 194 0
DWIDTH 3 0
BBX 3 7 0 -1
BITMAP
20
E0
C0
C0
C0
60
80
ENDCHAR
STARTCHAR sterling
ENCODING 163
SWIDTH 344 0
DWIDTH 6 0
BBX 6 5 0 0
BITMAP
0C
10
38
20
F8
ENDCHAR
STARTCHAR currency
ENCODING 164
SWIDTH 344 0
DWIDTH 6 0
BBX 6 5 0 0
BITMAP
44
78
88
50
B8
ENDCHAR
STARTCHAR yen
ENCODING 165
SWIDTH 309 0
DWIDTH 5 0
BBX 5 5 0 0
BITMAP
D8
50
E0
40
E0
ENDCHAR
STARTCHAR brokenbar
ENCODING 166
SWIDTH 162 0
DWIDTH 3 0
BBX 1 14 1 -4
BITMAP
80
80
80
80
80
00
00
00
00
80
80
80
80
80
ENDCHAR
STARTCHAR section
ENCODING 167
SWIDTH 395 0
DWIDTH 6 0
BBX 8 12 -1 -4
BITMAP
0F
15
14
14
14
12
0A
0A
0A
8A
8C
78
ENDCHAR
STARTCHAR dieresis
ENCODING 168
SWIDTH 174 0
DWIDTH 3 0
BBX 3 1 0 5
BITMAP
A0
ENDCHAR
STARTCHAR copyright
ENCODING 169
SWIDTH 331 0
DWIDTH 5 0
BBX 4 4 1 2
BITMAP
E0
F0
90
E0
ENDCHAR
STARTCHAR ordfeminine
ENCODING 170
SWIDTH 226 0
DWIDTH 4 0
BBX 2 2 1 3
BITMAP
C0
C0
ENDCHAR
STARTCHAR guillemotleft
ENCODING 171
SWIDTH 289 0
DWIDTH 5 0
BBX 5 4 0 0
BITMAP
38
60
A0
50
ENDCHAR
STARTCHAR logicalnot
ENCODING 172
SWIDTH 265 0
DWIDTH 4 0
BBX 4 3 0 1
BITMAP
F0
10
20
ENDCHAR
STARTCHAR registered
ENCODING 174
SWIDTH 331 0
DWIDTH 5 0
BBX 4 4 1 2
BITMAP
70
F0
D0
E0
ENDCHAR
STARTCHAR degree
ENCODING 176
SWIDTH 104 0
DWIDTH 2 0
BBX 2 3 1 4
BITMAP
C0
C0
C0
ENDCHAR
STARTCHAR plusminus
ENCODING 177
SWIDTH 301 0
DWIDTH 5 0
BBX 4 5 0 0
BITMAP
20
20
70
40
F0
ENDCHAR
STARTCHAR twosuperior
ENCODING 178
SWIDTH 215 0
DWIDTH 3 0
BBX 2 3 1 2
BITMAP
C0
40
C0
ENDCHAR
STARTCHAR threesuperior
ENCODING 179
SWIDTH 190 0
DWIDTH 3 0
BBX 2 3 1 2
BITMAP
C0
C0
80
ENDCHAR
STARTCHAR acute
ENCODING 180
SWIDTH 157 0
DWIDTH 3 0
BBX 2 2 0 5
BITMAP
40
80
ENDCHAR
STARTCHAR mu
ENCODING 181
SWIDTH 324 0
DWIDTH 5 0
BBX 5 6 0 -2
BITMAP
28
50
50
78
80
80
ENDCHAR
STARTCHAR paragraph
ENCODING 182
SWIDTH 392 0
DWIDTH 6 0
BBX 8 9 -2 -4
BITMAP
07
0F
1E
1E
1E
0C
0C
98
F0
ENDCHAR
STARTCHAR periodcentered
ENCODING 183
SWIDTH 112 0
DWIDTH 2 0
BBX 1 1 0 2
BITMAP
80
ENDCHAR
STARTCHAR cedilla
ENCODING 184
SWIDTH 115 0
DWIDTH 2 0
BBX 2 2 0 -2
BITMAP
C0
80
ENDCHAR
STARTCHAR onesuperior
ENCODING 185
SWIDTH 174 0
DWIDTH 3 0
BBX 1 3 1 2
BITMAP
80
80
80
ENDCHAR
STARTCHAR ordmasculine
ENCODING 186
SWIDTH 178 0
DWIDTH 3 0
BBX 1 2 1 3
BITMAP
80
80
ENDCHAR
STARTCHAR guillemotright
ENCODING 187
SWIDTH 276 0
DWIDTH 4 0
BBX 5 4 -1 0
BITMAP
60
30
58
E0
ENDCHAR
STARTCHAR onequarter
ENCODING 188
SWIDTH 435 0
DWIDTH 7 0
BBX 6 7 1 -1
BITMAP
08
50
94
B8
D8
90
80
ENDCHAR
STARTCHAR onehalf
ENCODING 189
SWIDTH 434 0
DWIDTH 7 0
BBX 6 7 1 -1
BITMAP
08
50
90
BC
C8
98
A0
ENDCHAR
STARTCHAR threequarters
ENCODING 190
SWIDTH 476 0
DWIDTH 8 0
BBX 6 7 1 -1
BITMAP
04
C8
50
64
B8
4C
80
ENDCHAR
STARTCHAR questiondown
ENCODING 191
SWIDTH 285 0
DWIDTH 5 0
BBX 5 9 -1 -5
BITMAP
08
00
08
10
20
40
80
90
60
ENDCHAR
STARTCHAR Agrave
ENCODING 192
SWIDTH 996 0
DWIDTH 16 0
BBX 15 12 1 0
BITMAP
0004
0002
00FC
030A
0214
0024
0048
01F8
8088
8108
820A
FC0C
ENDCHAR
STARTCHAR Aacute
ENCODING 193
SWIDTH 996 0
DWIDTH 16 0
BBX 15 12 1 0
BITMAP
0006
0000
00FC
030A
0214
0024
0048
01F8
8088
8108
820A
FC0C
ENDCHAR
STARTCHAR Acircumflex
ENCODING 194
SWIDTH 996 0
DWIDTH 16 0
BBX 16 12 1 0
BITMAP
0006
0001
00FC
030A
0214
0024
0048
01F8
8088
8108
820A
FC0C
ENDCHAR
STARTCHAR Atilde
ENCODING 195
SWIDTH 996 0
DWIDTH 16 0
BBX 16 12 1 0
BITMAP
0007
0002
00FC
030A
0214
0024
0048
01F8
8088
8108
820A
FC0C
ENDCHAR
STARTCHAR Adieresis
ENCODING 196
SWIDTH 996 0
DWIDTH 16 0
BBX 16 12 1 0
BITMAP
0005
0000
00FC
030A
0214
0024
0048
01F8
8088
8108
820A
FC0C
ENDCHAR
STARTCHAR Aring
ENCODING 197
SWIDTH 996 0
DWIDTH 16 0
BBX 16 13 1 0
BITMAP
0002
0005
0002
00FC
030A
0214
0024
0048
01F8
8088
8108
820A
FC0C
ENDCHAR
STARTCHAR AE
ENCODING 198
SWIDTH 1271 0
DWIDTH 20 0
BBX 21 10 0 0
BITMAP
00FE78
010588
020A80
001260
002780
00FC00
808400
810410
820410
7C03E0
ENDCHAR
STARTCHAR Ccedilla
ENCODING 199
SWIDTH 557 0
DWIDTH 9 0
BBX 9 11 1 -1
BITMAP
1F80
2080
4000
8000
8000
8000
8100
4100
2200
1C00
1800
ENDCHAR
STARTCHAR Egrave
ENCODING 200
SWIDTH 463 0
DWIDTH 7 0
BBX 8 12 0 0
BITMAP
06
01
0F
11
10
0C
30
C0
80
82
82
7C
ENDCHAR
STARTCHAR Eacute
ENCODING 201
SWIDTH 463 0
DWIDTH 7 0
BBX 8 12 0 0
BITMAP
03
04
0F
11
10
0C
30
C0
80
82
82
7C
ENDCHAR
STARTCHAR Ecircumflex
ENCODING 202
SWIDTH 463 0
DWIDTH 7 0
BBX 8 12 0 0
BITMAP
06
01
0F
11
10
0C
30
C0
80
82
82
7C
ENDCHAR
STARTCHAR Edieresis
ENCODING 203
SWIDTH 463 0
DWIDTH 7 0
BBX 8 12 0 0
BITMAP
05
00
0F
11
10
0C
30
C0
80
82
82
7C
ENDCHAR
STARTCHAR Igrave
ENCODING 204
SWIDTH 514 0
DWIDTH 8 0
BBX 11 12 0 0
BITMAP
0080
0040
00E0
0340
0480
0480
0880
0900
4500
8200
8400
7800
ENDCHAR
STARTCHAR Iacute
ENCODING 205
SWIDTH 514 0
DWIDTH 8 0
BBX 11 12 0 0
BITMAP
0040
0080
00E0
0340
0480
0480
0880
0900
4500
8200
8400
7800
ENDCHAR
STARTCHAR Icircumflex
ENCODING 206
SWIDTH 514 0
DWIDTH 8 0
BBX 11 12 0 0
BITMAP
00C0
0020
00E0
0340
0480
0480
0880
0900
4500
8200
8400
7800
ENDCHAR
STARTCHAR Idieresis
ENCODING 207
SWIDTH 514 0
DWIDTH 8 0
BBX 11 12 0 0
BITMAP
00A0
0000
00E0
0340
0480
0480
0880
0900
4500
8200
8400
7800
ENDCHAR
STARTCHAR Eth
ENCODING 208
SWIDTH 800 0
DWIDTH 13 0
BBX 12 10 1 0
BITMAP
1FC0
6140
4220
0220
0210
0F10
0410
0410
4820
FFC0
ENDCHAR
STARTCHAR Ntilde
ENCODING 209
SWIDTH 796 0
DWIDTH 13 0
BBX 20 12 -2 0
BITMAP
000E00
000C00
07C030
0840D0
006100
009100
009200
808A00
810C00
820400
840400
780400
ENDCHAR
STARTCHAR Ograve
ENCODING 210
SWIDTH 608 0
DWIDTH 10 0
BBX 10 12 1 0
BITMAP
0400
0200
0F00
3080
4040
4040
8040
8040
8080
8080
4300
3C00
ENDCHAR
STARTCHAR Oacute
ENCODING 211
SWIDTH 608 0
DWIDTH 10 0
BBX 10 12 1 0
BITMAP
0600
0000
0F00
3080
4040
4040
8040
8040
8080
8080
4300
3C00
ENDCHAR
STARTCHAR Ocircumflex
ENCODING 212
SWIDTH 608 0
DWIDTH 10 0
BBX 10 12 1 0
BITMAP
0600
0100
0F00
3080
4040
4040
8040
8040
8080
8080
4300
3C00
ENDCHAR
STARTCHAR Otilde
ENCODING 213
SWIDTH 608 0
DWIDTH 10 0
BBX 10 12 1 0
BITMAP
0700
0800
0F00
3080
4040
4040
8040
8040
8080
8080
4300
3C00
ENDCHAR
STARTCHAR Odieresis
ENCODING 214
SWIDTH 608 0
DWIDTH 10 0
BBX 10 12 1 0
BITMAP
0500
0000
0F00
3080
4040
4040
8040
8040
8080
8080
4300
3C00
ENDCHAR
STARTCHAR multiply
ENCODING 215
SWIDTH 301 0
DWIDTH 5 0
BBX 4 4 1 0
BITMAP
50
60
A0
A0
ENDCHAR
STARTCHAR Oslash
ENCODING 216
SWIDTH 605 0
DWIDTH 10 0
BBX 10 11 1 0
BITMAP
0080
0F80
3240
4440
4440
8840
9040
9080
A080
C300
BC00
ENDCHAR
STARTCHAR Ugrave
ENCODING 217
SWIDTH 717 0
DWIDTH 11 0
BBX 12 12 1 0
BITMAP
0100
0080
3E10
C420
8820
9040
9040
20C0
2080
2380
22A0
3CC0
ENDCHAR
STARTCHAR Uacute
ENCODING 218
SWIDTH 717 0
DWIDTH 11 0
BBX 12 12 1 0
BITMAP
0040
0080
3E10
C420
8820
9040
9040
20C0
2080
2380
22A0
3CC0
ENDCHAR
STARTCHAR Ucircumflex
ENCODING 219
SWIDTH 718 0
DWIDTH 11 0
BBX 12 12 1 0
BITMAP
0180
0040
3E10
C420
8820
9040
9040
21C0
2080
2380
24A0
38C0
ENDCHAR
STARTCHAR Udieresis
ENCODING 220
SWIDTH 718 0
DWIDTH 11 0
BBX 12 12 1 0
BITMAP
0140
0000
3E10
C420
8820
9040
9040
20C0
2080
2380
22A0
3CC0
ENDCHAR
STARTCHAR Yacute
ENCODING 221
SWIDTH 662 0
DWIDTH 11 0
BBX 14 14 0 -2
BITMAP
0010
0060
0704
0108
0208
0210
0430
1420
64C0
8740
8080
8100
4200
7C00
ENDCHAR
STARTCHAR Thorn
ENCODING 222
SWIDTH 745 0
DWIDTH 12 0
BBX 13 10 0 0
BITMAP
0030
0040
01F0
0698
0088
0088
C110
82E0
8400
7800
ENDCHAR
STARTCHAR germandbls
ENCODING 223
SWIDTH 304 0
DWIDTH 5 0
BBX 14 16 -5 -4
BITMAP
0018
0064
0084
0108
0110
0160
02C0
0280
0280
0480
0440
0980
0800
1000
1000
E000
ENDCHAR
STARTCHAR agrave
ENCODING 224
SWIDTH 294 0
DWIDTH 5 0
BBX 5 6 0 0
BITMAP
10
00
38
D0
90
F8
ENDCHAR
STARTCHAR aacute
ENCODING 225
SWIDTH 294 0
DWIDTH 5 0
BBX 5 7 0 0
BITMAP
08
10
00
38
D0
90
F8
ENDCHAR
STARTCHAR acircumflex
ENCODING 226
SWIDTH 294 0
DWIDTH 5 0
BBX 5 7 0 0
BITMAP
10
28
00
38
D0
90
F8
ENDCHAR
STARTCHAR atilde
ENCODING 227
SWIDTH 294 0
DWIDTH 5 0
BBX 5 7 0 0
BITMAP
20
58
00
38
D0
90
F8
ENDCHAR
STARTCHAR adieresis
ENCODING 228
SWIDTH 284 0
DWIDTH 5 0
BBX 5 6 0 0
BITMAP
28
00
38
D0
90
F8
ENDCHAR
STARTCHAR aring
ENCODING 229
SWIDTH 294 0
DWIDTH 5 0
BBX 5 7 0 0
BITMAP
10
30
10
38
D0
90
F8
ENDCHAR
STARTCHAR ae
ENCODING 230
SWIDTH 363 0
DWIDTH 6 0
BBX 6 5 0 0
BITMAP
08
74
98
B0
DC
ENDCHAR
STARTCHAR ccedilla
ENCODING 231
SWIDTH 203 0
DWIDTH 3 0
BBX 3 6 0 -2
BITMAP
60
80
80
E0
40
C0
ENDCHAR
STARTCHAR egrave
ENCODING 232
SWIDTH 206 0
DWIDTH 3 0
BBX 4 6 0 0
BITMAP
20
10
E0
C0
80
E0
ENDCHAR
STARTCHAR eacute
ENCODING 233
SWIDTH 206 0
DWIDTH 3 0
BBX 4 7 0 0
BITMAP
10
20
00
E0
C0
80
E0
ENDCHAR
STARTCHAR ecircumflex
ENCODING 234
SWIDTH 206 0
DWIDTH 3 0
BBX 4 7 0 0
BITMAP
20
50
00
E0
C0
80
E0
ENDCHAR
STARTCHAR edieresis
ENCODING 235
SWIDTH 206 0
DWIDTH 3 0
BBX 4 6 0 0
BITMAP
50
00
E0
C0
80
E0
ENDCHAR
STARTCHAR igrave
ENCODING 236
SWIDTH 149 0
DWIDTH 2 0
BBX 3 6 0 0
BITMAP
60
00
40
80
80
C0
ENDCHAR
STARTCHAR iacute
ENCODING 237
SWIDTH 149 0
DWIDTH 2 0
BBX 4 7 0 0
BITMAP
10
20
00
40
80
80
C0
ENDCHAR
STARTCHAR icircumflex
ENCODING 238
SWIDTH 149 0
DWIDTH 2 0
BBX 4 7 0 0
BITMAP
20
D0
00
40
80
80
C0
ENDCHAR
STARTCHAR idieresis
ENCODING 239
SWIDTH 149 0
DWIDTH 2 0
BBX 4 6 0 0
BITMAP
50
00
40
80
80
C0
ENDCHAR
STARTCHAR eth
ENCODING 240
SWIDTH 234 0
DWIDTH 4 0
BBX 4 11 0 0
BITMAP
40
80
40
30
E0
10
10
70
90
A0
C0
ENDCHAR
STARTCHAR ntilde
ENCODING 241
SWIDTH 291 0
DWIDTH 5 0
BBX 5 7 0 0
BITMAP
20
58
00
78
D0
50
98
ENDCHAR
STARTCHAR ograve
ENCODING 242
SWIDTH 225 0
DWIDTH 4 0
BBX 4 6 0 0
BITMAP
20
10
E0
A0
A0
C0
ENDCHAR
STARTCHAR oacute
ENCODING 243
SWIDTH 225 0
DWIDTH 4 0
BBX 4 7 0 0
BITMAP
10
20
00
E0
A0
A0
C0
ENDCHAR
STARTCHAR ocircumflex
ENCODING 244
SWIDTH 225 0
DWIDTH 4 0
BBX 4 7 0 0
BITMAP
20
50
00
E0
A0
A0
C0
ENDCHAR
STARTCHAR otilde
ENCODING 245
SWIDTH 225 0
DWIDTH 4 0
BBX 4 7 0 0
BITMAP
20
50
00
E0
A0
A0
C0
ENDCHAR
STARTCHAR odieresis
ENCODING 246
SWIDTH 225 0
DWIDTH 4 0
BBX 4 6 0 0
BITMAP
50
00
E0
A0
A0
C0
ENDCHAR
STARTCHAR divide
ENCODING 247
SWIDTH 301 0
DWIDTH 5 0
BBX 3 5 1 0
BITMAP
40
00
E0
00
40
ENDCHAR
STARTCHAR oslash
ENCODING 248
SWIDTH 225 0
DWIDTH 4 0
BBX 4 5 0 0
BITMAP
10
70
D0
E0
C0
ENDCHAR
STARTCHAR ugrave
ENCODING 249
SWIDTH 299 0
DWIDTH 5 0
BBX 5 6 0 0
BITMAP
10
00
48
90
90
F8
ENDCHAR
STARTCHAR uacute
ENCODING 250
SWIDTH 299 0
DWIDTH 5 0
BBX 5 7 0 0
BITMAP
08
10
00
48
90
90
F8
ENDCHAR
STARTCHAR ucircumflex
ENCODING 251
SWIDTH 299 0
DWIDTH 5 0
BBX 5 7 0 0
BITMAP
10
28
00
48
90
90
F8
ENDCHAR
STARTCHAR udieresis
ENCODING 252
SWIDTH 299 0
DWIDTH 5 0
BBX 5 6 0 0
BITMAP
28
00
48
90
90
F8
ENDCHAR
STARTCHAR yacute
ENCODING 253
SWIDTH 280 0
DWIDTH 4 0
BBX 8 11 -3 -4
BITMAP
01
02
00
09
12
12
1C
04
88
88
F0
ENDCHAR
STARTCHAR thorn
ENCODING 254
SWIDTH 261 0
DWIDTH 4 0
BBX 5 12 -1 -4
BITMAP
10
10
20
20
30
48
50
60
80
80
80
80
ENDCHAR
STARTCHAR ydieresis
ENCODING 255
SWIDTH 280 0
DWIDTH 4 0
BBX 8 10 -3 -4
BITMAP
05
00
09
12
12
1C
04
88
88
F0
ENDCHAR
STARTCHAR dotlessi
ENCODING 305
SWIDTH 149 0
DWIDTH 2 0
BBX 2 4 0 0
BITMAP
40
80
80
C0
ENDCHAR
STARTCHAR Lslash
ENCODING 321
SWIDTH 657 0
DWIDTH 11 0
BBX 11 10 1 0
BITMAP
00E0
0120
0220
0400
0F00
1400
0400
4800
B0C0
EF80
ENDCHAR
STARTCHAR lslash
ENCODING 322
SWIDTH 134 0
DWIDTH 2 0
BBX 8 12 0 0
BITMAP
03
0C
10
20
20
70
40
40
80
80
80
C0
ENDCHAR
STARTCHAR OE
ENCODING 338
SWIDTH 827 0
DWIDTH 13 0
BBX 13 10 1 0
BITMAP
0F78
3188
4080
4060
8180
8600
8400
8410
4410
3FE0
ENDCHAR
STARTCHAR oe
ENCODING 339
SWIDTH 345 0
DWIDTH 6 0
BBX 6 4 0 0
BITMAP
7C
98
A0
DC
ENDCHAR
STARTCHAR Scaron
ENCODING 352
SWIDTH 480 0
DWIDTH 8 0
BBX 8 12 1 0
BITMAP
06
00
1F
11
10
18
0C
06
42
82
82
7C
ENDCHAR
STARTCHAR scaron
ENCODING 353
SWIDTH 188 0
DWIDTH 3 0
BBX 4 7 0 0
BITMAP
30
10
00
60
40
20
E0
ENDCHAR
STARTCHAR Ydieresis
ENCODING 376
SWIDTH 662 0
DWIDTH 11 0
BBX 14 14 0 -2
BITMAP
0050
0000
0704
0108
0208
0210
0430
1420
64C0
8740
8080
8100
4200
7C00
ENDCHAR
STARTCHAR Zcaron
ENCODING 381
SWIDTH 625 0
DWIDTH 10 0
BBX 10 12 1 0
BITMAP
0380
0000
07C0
1880
2100
0200
0C00
1000
2000
4080
6100
9E00
ENDCHAR
STARTCHAR zcaron
ENCODING 382
SWIDTH 248 0
DWIDTH 4 0
BBX 5 7 0 0
BITMAP
28
10
00
60
C0
80
E0
ENDCHAR
STARTCHAR florin
ENCODING 402
SWIDTH 214 0
DWIDTH 3 0
BBX 5 6 -1 -1
BITMAP
18
20
30
60
40
80
ENDCHAR
STARTCHAR circumflex
ENCODING 710
SWIDTH 196 0
DWIDTH 3 0
BBX 3 2 0 5
BITMAP
40
A0
ENDCHAR
STARTCHAR caron
ENCODING 711
SWIDTH 196 0
DWIDTH 3 0
BBX 2 2 1 5
BITMAP
C0
40
ENDCHAR
STARTCHAR breve
ENCODING 728
SWIDTH 198 0
DWIDTH 3 0
BBX 3 2 0 5
BITMAP
A0
40
ENDCHAR
STARTCHAR dotaccent
ENCODING 729
SWIDTH 89 0
DWIDTH 2 0
BBX 1 1 0 5
BITMAP
80
ENDCHAR
STARTCHAR ring
ENCODING 730
SWIDTH 117 0
DWIDTH 2 0
BBX 2 3 0 4
BITMAP
C0
C0
C0
ENDCHAR
STARTCHAR ogonek
ENCODING 731
SWIDTH 124 0
DWIDTH 2 0
BBX 2 2 0 -2
BITMAP
C0
C0
ENDCHAR
STARTCHAR tilde
ENCODING 732
SWIDTH 222 0
DWIDTH 4 0
BBX 3 2 0 5
BITMAP
40
E0
ENDCHAR
STARTCHAR hungarumlaut
ENCODING 733
SWIDTH 253 0
DWIDTH 4 0
BBX 4 2 0 5
BITMAP
50
A0
ENDCHAR
STARTCHAR mu.dup2
ENCODING 956
SWIDTH 324 0
DWIDTH 5 0
BBX 5 6 0 -2
BITMAP
28
50
50
78
80
80
ENDCHAR
STARTCHAR endash
ENCODING 8211
SWIDTH 500 0
DWIDTH 8 0
BBX 8 1 0 2
BITMAP
FF
ENDCHAR
STARTCHAR emdash
ENCODING 8212
SWIDTH 1000 0
DWIDTH 16 0
BBX 16 1 0 2
BITMAP
FFFF
ENDCHAR
STARTCHAR quoteleft
ENCODING 8216
SWIDTH 87 0
DWIDTH 1 0
BBX 2 3 1 4
BITMAP
40
80
80
ENDCHAR
STARTCHAR quoteright
ENCODING 8217
SWIDTH 87 0
DWIDTH 1 0
BBX 2 3 0 4
BITMAP
40
40
80
ENDCHAR
STARTCHAR quotesinglbase
ENCODING 8218
SWIDTH 112 0
DWIDTH 2 0
BBX 1 2 0 -1
BITMAP
80
80
ENDCHAR
STARTCHAR quotedblleft
ENCODING 8220
SWIDTH 167 0
DWIDTH 2 0
BBX 3 3 1 4
BITMAP
A0
C0
C0
ENDCHAR
STARTCHAR quotedblright
ENCODING 8221
SWIDTH 167 0
DWIDTH 3 0
BBX 3 3 1 4
BITMAP
60
60
A0
ENDCHAR
STARTCHAR quotedblbase
ENCODING 8222
SWIDTH 192 0
DWIDTH 3 0
BBX 3 2 0 -1
BITMAP
60
C0
ENDCHAR
STARTCHAR dagger
ENCODING 8224
SWIDTH 185 0
DWIDTH 3 0
BBX 4 10 0 -1
BITMAP
20
40
40
F0
40
80
80
80
80
80
ENDCHAR
STARTCHAR daggerdbl
ENCODING 8225
SWIDTH 185 0
DWIDTH 3 0
BBX 5 11 -1 -2
BITMAP
10
20
20
78
20
40
40
F0
40
80
80
ENDCHAR
STARTCHAR bullet
ENCODING 8226
SWIDTH 207 0
DWIDTH 4 0
BBX 2 2 1 1
BITMAP
C0
C0
ENDCHAR
STARTCHAR ellipsis
ENCODING 8230
SWIDTH 376 0
DWIDTH 6 0
BBX 6 1 0 0
BITMAP
B4
ENDCHAR
STARTCHAR perthousand
ENCODING 8240
SWIDTH 571 0
DWIDTH 9 0
BBX 9 7 0 -1
BITMAP
0400
6800
B000
FF80
3680
5B00
8000
ENDCHAR
STARTCHAR guilsinglleft
ENCODING 8249
SWIDTH 189 0
DWIDTH 3 0
BBX 3 4 0 0
BITMAP
20
C0
80
40
ENDCHAR
STARTCHAR guilsinglright
ENCODING 8250
SWIDTH 176 0
DWIDTH 3 0
BBX 3 4 -1 0
BITMAP
40
20
40
80
ENDCHAR
STARTCHAR fraction
ENCODING 8260
SWIDTH 220 0
DWIDTH 4 0
BBX 5 7 0 -1
BITMAP
08
10
20
20
40
80
80
ENDCHAR
STARTCHAR Euro
ENCODING 8364
SWIDTH 360 0
DWIDTH 6 0
BBX 5 6 0 0
BITMAP
18
60
60
C0
F0
78
ENDCHAR
STARTCHAR trademark
ENCODING 8482
SWIDTH 389 0
DWIDTH 6 0
BBX 5 2 1 3
BITMAP
F8
B8
ENDCHAR
STARTCHAR minus
ENCODING 8722
SWIDTH 301 0
DWIDTH 5 0
BBX 5 1 0 2
BITMAP
F8
ENDCHAR
STARTCHAR fi
ENCODING 64257
SWIDTH 297 0
DWIDTH 5 0
BBX 13 16 -5 -4
BITMAP
0018
0068
0080
0080
0080
0120
0140
0200
07C0
0280
0480
04C0
0800
0800
1000
E000
ENDCHAR
STARTCHAR fl
ENCODING 64258
SWIDTH 290 0
DWIDTH 5 0
BBX 16 16 -5 -4
BITMAP
000B
007C
0090
00A0
0120
0140
0140
0240
0380
0680
0280
04C0
0400
0800
1000
E000
ENDCHAR
STARTCHAR .notdef
ENCODING -1
SWIDTH 150 0
DWIDTH 2 0
BBX 1 1 0 0
BITMAP
00
ENDCHAR
STARTCHAR .null
ENCODING -1
SWIDTH 0 0
DWIDTH 0 0
BBX 1 1 0 0
BITMAP
00
ENDCHAR
STARTCHAR nonmarkingreturn
ENCODING -1
SWIDTH 150 0
DWIDTH 2 0
BBX 1 1 0 0
BITMAP
00
ENDCHAR
ENDFONT
